<?xml version="1.0" encoding="utf-8"?>
<!-- Generator: Adobe Illustrator 16.0.0, SVG Export Plug-In . SVG Version: 6.00 Build 0)  -->
<!DOCTYPE svg PUBLIC "-//W3C//DTD SVG 1.1//EN" "http://www.w3.org/Graphics/SVG/1.1/DTD/svg11.dtd">
<svg version="1.1" id="ac-boy-head" xmlns="http://www.w3.org/2000/svg" xmlns:xlink="http://www.w3.org/1999/xlink" x="0px" y="0px"
	 width="64px" height="64px" viewBox="0 0 64 64" enable-background="new 0 0 64 64" xml:space="preserve">
<path fill="#EDA179" d="M55.672,36.819c-1.598-11.85-11.547-24.311-23.584-24.311c-12.035,0-21.982,12.453-23.584,24.301
	c-1.559,0.077-9.992,0.965-1.867,10.983c0,0,0.934,0.96,3.322,0.131c3.5,7.233,12.084,10.573,22.129,10.573
	c10.018,0,18.586-3.324,22.1-10.522c2.283,0.743,3.176-0.182,3.176-0.182C65.221,38.104,57.592,36.956,55.672,36.819z"/>
<polygon fill="#F26322" points="31.998,37.335 29.873,45.093 34.125,45.093 "/>
<path fill="#5B3522" d="M31.672,50.476c-2.809,0-4.861-2.467-4.947-2.572l0.535-0.367c0.018,0.023,1.941,2.328,4.412,2.328
	c2.818,0,5.076-2.322,5.1-2.346l0.502,0.402C37.174,48.026,34.797,50.476,31.672,50.476z"/>
<g>
	<path fill="#FFFFFF" d="M23.533,43.253c-1.695,0-3.07-2.035-3.07-4.545c0-2.453,1.313-4.445,2.953-4.537
		c-0.395-0.15-0.801-0.234-1.197-0.234c-0.152,0-0.299,0.01-0.441,0.029c-0.115,0.014-0.227,0.037-0.338,0.063
		c-0.023,0.006-0.051,0.01-0.074,0.016c-0.113,0.027-0.225,0.064-0.334,0.104c-0.025,0.01-0.053,0.018-0.078,0.027
		c-0.08,0.031-0.158,0.066-0.236,0.104c-0.076,0.035-0.152,0.07-0.225,0.109c-0.014,0.008-0.027,0.018-0.041,0.025
		c-1.504,0.869-2.311,2.748-2.311,3.992v5.301h-0.102c0,0,0.668,0.758,5.057,0.758c2.047,0,2.998-2.119,2.998-2.119v-1.127
		C25.543,42.444,24.604,43.253,23.533,43.253z"/>
	<path fill="#010101" d="M20.463,38.708c0,2.51,1.375,4.545,3.07,4.545c1.07,0,2.01-0.809,2.561-2.035V37.95
		c0-1.797-1.256-3.236-2.678-3.779C21.775,34.263,20.463,36.255,20.463,38.708z"/>
	<path fill="#5B3521" d="M22.219,33.179c-3.805,0-4.912,4.016-4.912,5.074v5.453h0.732h0.102v-5.301
		c0-1.244,0.807-3.123,2.311-3.992c0.014-0.008,0.027-0.016,0.041-0.025c0.072-0.039,0.148-0.074,0.225-0.109
		c0.078-0.037,0.156-0.072,0.236-0.104c0.025-0.01,0.053-0.018,0.078-0.027c0.109-0.039,0.219-0.076,0.334-0.104
		c0.023-0.006,0.051-0.01,0.074-0.016c0.111-0.025,0.223-0.049,0.338-0.063c0.143-0.02,0.289-0.029,0.441-0.029
		c0.396,0,0.803,0.084,1.197,0.234c1.422,0.543,2.678,1.982,2.678,3.779v3.268v1.127c0,0,0.805-0.305,0.805-0.605
		c0-0.607,0.035-3.902,0.035-3.902C26.934,35.339,24.629,33.179,22.219,33.179z"/>
	<path fill="#FFFFFF" d="M43.291,43.409c-1.695,0-3.07-2.035-3.07-4.545c0-2.451,1.313-4.445,2.953-4.535
		c-0.393-0.15-0.801-0.236-1.197-0.236c-0.152,0-0.299,0.012-0.441,0.029c-0.115,0.014-0.227,0.037-0.338,0.063
		c-0.025,0.006-0.051,0.01-0.074,0.016c-0.113,0.027-0.225,0.064-0.334,0.105c-0.025,0.008-0.053,0.016-0.078,0.025
		c-0.08,0.031-0.158,0.066-0.236,0.104c-0.076,0.035-0.152,0.07-0.225,0.111c-0.014,0.006-0.027,0.016-0.041,0.023
		c-1.504,0.869-2.311,2.748-2.311,3.992v5.301h-0.104c0,0,0.67,0.758,5.057,0.758c2.049,0,3-2.119,3-2.119v-1.127
		C45.301,42.601,44.361,43.409,43.291,43.409z"/>
	<path fill="#010101" d="M40.221,38.864c0,2.51,1.375,4.545,3.07,4.545c1.07,0,2.01-0.809,2.561-2.035v-3.268
		c0-1.797-1.256-3.236-2.678-3.777C41.533,34.419,40.221,36.413,40.221,38.864z"/>
	<path fill="#5B3521" d="M41.977,33.335c-3.805,0-4.912,4.016-4.912,5.076v5.451h0.73h0.104v-5.301c0-1.244,0.807-3.123,2.311-3.992
		c0.014-0.008,0.027-0.016,0.041-0.023c0.072-0.041,0.148-0.076,0.225-0.111c0.078-0.037,0.156-0.072,0.236-0.104
		c0.025-0.01,0.053-0.018,0.078-0.025c0.109-0.041,0.219-0.078,0.334-0.105c0.023-0.006,0.049-0.01,0.074-0.016
		c0.111-0.023,0.223-0.049,0.338-0.063c0.143-0.018,0.289-0.029,0.441-0.029c0.396,0,0.805,0.086,1.197,0.236
		c1.422,0.541,2.678,1.98,2.678,3.777v3.268v1.127c0,0,0.803-0.305,0.803-0.605c0-0.607,0.037-3.902,0.037-3.902
		C46.691,35.495,44.387,33.335,41.977,33.335z"/>
</g>
<path fill="#2A2E7F" d="M60.838,40.584c0,0,2.619,0.22,3.162-1.171l-5.346-6.736l2.672-0.852l-7.166-5.574
	c0,0,1.084-0.311,1.16-2.633h-1.547c0,0-2.248-3.174-8.758-7.664c0,0,0.311,0.387,0-2.246c0,0-20.609-2.244-25.18-8.205
	c0,0-1.861,3.947,0,8.129c0,0-9.918,8.205-14.955,10.141c0,0,2.326,3.174,2.17,4.955l-6.43,3.098l3.949,1.547L0,40.415l3.155-0.165
	c0,0,0.345-2.416,5.349-3.44c0,0,1.355,4.711,1.879,6.221c0,0,0.766-10.043,0.871-10.801c0.291-2.09,8.02-4.586,9.008-9
	c0,0-0.523,4.299-0.117,5.982c0,0,14.414,0.869,21.908-5.4l7.566,7.041l1.268-1.467l2.672,12.541c0,0,0.72-0.713,2.113-5.107
	C55.672,36.819,59.083,37,60.838,40.584z"/>
</svg>
