<?xml version="1.0" encoding="utf-8"?>
<!-- Generator: Adobe Illustrator 16.0.0, SVG Export Plug-In . SVG Version: 6.00 Build 0)  -->
<!DOCTYPE svg PUBLIC "-//W3C//DTD SVG 1.1//EN" "http://www.w3.org/Graphics/SVG/1.1/DTD/svg11.dtd">
<svg version="1.1" xmlns="http://www.w3.org/2000/svg" xmlns:xlink="http://www.w3.org/1999/xlink" x="0px" y="0px" width="300px"
	 height="300px" viewBox="0 0 300 300" enable-background="new 0 0 300 300" xml:space="preserve">
<pattern  width="329.639" height="365.505" patternUnits="userSpaceOnUse" id="AC_Grass" viewBox="20.773 -366.646 329.639 365.505" overflow="visible">
	<g>
		<g>
			<path fill="#059A8F" d="M92.841-375.704c0,5.631-4.566,10.199-10.199,10.199c-5.634,0-10.199-4.568-10.199-10.199
				c0-5.633,4.565-10.199,10.199-10.199C88.274-385.903,92.841-381.337,92.841-375.704z"/>
		</g>
		<g>
			<path fill="#29A754" d="M21.49-353.717c0,5.936-4.811,10.746-10.744,10.746C4.811-342.971,0-347.781,0-353.717
				s4.811-10.745,10.746-10.745C16.68-364.462,21.49-359.652,21.49-353.717z"/>
			<path fill="#29A754" d="M21.573-129.506c0,4.372-3.543,7.916-7.914,7.916s-7.914-3.544-7.914-7.916
				c0-4.37,3.543-7.913,7.914-7.913S21.573-133.876,21.573-129.506z"/>
		</g>
		<g>
			<path fill="#29A754" d="M162.89-232.887c0,14.02-11.365,25.383-25.384,25.383s-25.383-11.363-25.383-25.383
				c0-14.019,11.364-25.383,25.383-25.383S162.89-246.905,162.89-232.887z"/>
			<path fill="#29A754" d="M232.177-281.396c0,7.976-6.465,14.442-14.441,14.442s-14.441-6.467-14.441-14.442
				s6.465-14.441,14.441-14.441S232.177-289.372,232.177-281.396z"/>
			<path fill="#29A754" d="M320.149-163.016c0,11.531-9.348,20.879-20.877,20.879c-11.531,0-20.877-9.348-20.877-20.879
				c0-11.529,9.346-20.877,20.877-20.877C310.802-183.893,320.149-174.545,320.149-163.016z"/>
			<path fill="#29A754" d="M171.249-94.888c0,8.795-7.129,15.924-15.923,15.924c-8.795,0-15.924-7.129-15.924-15.924
				c0-8.793,7.129-15.924,15.924-15.924C164.12-110.812,171.249-103.681,171.249-94.888z"/>
			<path fill="#29A754" d="M261.524-157.924c0,6.286-5.096,11.381-11.381,11.381c-6.287,0-11.381-5.095-11.381-11.381
				c0-6.284,5.094-11.381,11.381-11.381C256.429-169.305,261.524-164.208,261.524-157.924z"/>
			<path fill="#29A754" d="M299.272-258.65c0,17.523-14.205,31.73-31.729,31.73c-17.525,0-31.729-14.207-31.729-31.73
				c0-17.522,14.203-31.728,31.729-31.728C285.067-290.378,299.272-276.173,299.272-258.65z"/>
			<path fill="#29A754" d="M235.378-350.047c0,6.775-5.494,12.268-12.268,12.268c-6.775,0-12.266-5.492-12.266-12.268
				s5.49-12.266,12.266-12.266C229.884-362.313,235.378-356.822,235.378-350.047z"/>
			<path fill="#29A754" d="M263.118-94.887c0,7.164-5.811,12.975-12.975,12.975c-7.168,0-12.975-5.811-12.975-12.975
				c0-7.166,5.807-12.977,12.975-12.977C257.308-107.863,263.118-102.053,263.118-94.887z"/>
			<path fill="#29A754" d="M156.799-42.816c0,13.602-11.028,24.631-24.63,24.631c-13.603,0-24.63-11.029-24.63-24.631
				s11.027-24.629,24.63-24.629C145.771-67.445,156.799-56.418,156.799-42.816z"/>
			<path fill="#29A754" d="M87.494-240.741c0,8.932-7.242,16.172-16.172,16.172c-8.932,0-16.171-7.24-16.171-16.172
				c0-8.93,7.239-16.17,16.171-16.17C80.252-256.911,87.494-249.671,87.494-240.741z"/>
			<path fill="#29A754" d="M288.345-312.803c0,5.936-4.811,10.746-10.744,10.746c-5.936,0-10.746-4.811-10.746-10.746
				s4.811-10.745,10.746-10.745C283.534-323.548,288.345-318.738,288.345-312.803z"/>
			<path fill="#29A754" d="M289.196-87.847c0,4.372-3.543,7.916-7.914,7.916s-7.914-3.544-7.914-7.916
				c0-4.37,3.543-7.913,7.914-7.913S289.196-92.217,289.196-87.847z"/>
			<path fill="#29A754" d="M108.702-322.424c0,6.121-4.962,11.083-11.083,11.083s-11.083-4.962-11.083-11.083
				c0-6.122,4.962-11.084,11.083-11.084S108.702-328.546,108.702-322.424z"/>
			<path fill="#29A754" d="M47.979-183.896c0,6.303-5.11,11.414-11.412,11.414c-6.303,0-11.411-5.111-11.411-11.414
				c0-6.3,5.108-11.409,11.411-11.409C42.868-195.305,47.979-190.195,47.979-183.896z"/>
			<path fill="#29A754" d="M177.646-30.893c0,5.074-4.114,9.186-9.188,9.186s-9.188-4.111-9.188-9.186s4.113-9.188,9.188-9.188
				S177.646-35.967,177.646-30.893z"/>
			<path fill="#059A8F" d="M253.839-31.865c0,16.969-13.756,30.725-30.727,30.725s-30.727-13.756-30.727-30.725
				c0-16.971,13.756-30.727,30.727-30.727S253.839-48.836,253.839-31.865z"/>
			<path fill="#059A8F" d="M200.071-77.646c0,5.633-4.566,10.201-10.199,10.201c-5.635,0-10.199-4.568-10.199-10.201
				s4.564-10.199,10.199-10.199C195.505-87.846,200.071-83.279,200.071-77.646z"/>
			<path fill="#059A8F" d="M137.616-281.396c0,11.488-9.313,20.801-20.801,20.801s-20.8-9.313-20.8-20.801s9.312-20.8,20.8-20.8
				S137.616-292.885,137.616-281.396z"/>
			<path fill="#059A8F" d="M277.601-126.82c0,5.553-4.502,10.055-10.057,10.055s-10.057-4.502-10.057-10.055
				c0-5.555,4.502-10.057,10.057-10.057S277.601-132.375,277.601-126.82z"/>
			<path fill="#059A8F" d="M233.36-116.765c0,11.105-9.004,20.111-20.111,20.111s-20.111-9.006-20.111-20.111
				c0-11.109,9.004-20.113,20.111-20.113S233.36-127.874,233.36-116.765z"/>
			<path fill="#059A8F" d="M196.905-251.721c0,6.247-5.064,11.313-11.314,11.313c-6.248,0-11.313-5.065-11.313-11.313
				c0-6.249,5.064-11.313,11.313-11.313C191.841-263.034,196.905-257.97,196.905-251.721z"/>
			<path fill="#059A8F" d="M304.938-204.781c0,8.377-6.791,15.168-15.168,15.168c-8.379,0-15.168-6.791-15.168-15.168
				c0-8.379,6.789-15.168,15.168-15.168C298.147-219.949,304.938-213.16,304.938-204.781z"/>
			<path fill="#059A8F" d="M272.843-337.778c0,8.479-6.875,15.354-15.355,15.354c-8.482,0-15.355-6.875-15.355-15.354
				c0-8.481,6.873-15.355,15.355-15.355C265.968-353.134,272.843-346.26,272.843-337.778z"/>
			<path fill="#059A8F" d="M137.203-353.135c0,6.889-5.584,12.475-12.474,12.475c-6.889,0-12.473-5.586-12.473-12.475
				s5.584-12.473,12.473-12.473C131.619-365.607,137.203-360.023,137.203-353.135z"/>
			<path fill="#059A8F" d="M168.458-141.607c0,7.252-5.88,13.131-13.133,13.131s-13.132-5.879-13.132-13.131
				c0-7.254,5.879-13.133,13.132-13.133S168.458-148.861,168.458-141.607z"/>
			<path fill="#059A8F" d="M124.579-159.783c0,19.732-15.996,35.73-35.732,35.73c-19.734,0-35.73-15.998-35.73-35.73
				c0-19.734,15.996-35.732,35.73-35.732C108.583-195.516,124.579-179.518,124.579-159.783z"/>
			<path fill="#549667" d="M238.845-205.988c0,13.763-11.158,24.92-24.922,24.92s-24.922-11.157-24.922-24.92
				c0-13.765,11.158-24.923,24.922-24.923S238.845-219.753,238.845-205.988z"/>
			<path fill="#549667" d="M110.667-211.521c0,7.205-5.841,13.047-13.048,13.047c-7.206,0-13.048-5.842-13.048-13.047
				s5.842-13.047,13.048-13.047C104.826-224.568,110.667-218.727,110.667-211.521z"/>
			<path fill="#549667" d="M203.294-318.881c0,19.239-15.596,34.835-34.836,34.835c-19.239,0-34.836-15.596-34.836-34.835
				s15.597-34.836,34.836-34.836C187.698-353.717,203.294-338.12,203.294-318.881z"/>
			<path fill="#549667" d="M247.843-312.802c0,4.969-4.029,8.997-8.998,8.997s-8.998-4.028-8.998-8.997
				c0-4.97,4.029-8.998,8.998-8.998S247.843-317.771,247.843-312.802z"/>
			<path fill="#549667" d="M345.138-204.782c0,5.387-4.367,9.754-9.754,9.754s-9.754-4.367-9.754-9.754
				c0-5.386,4.367-9.752,9.754-9.752S345.138-210.168,345.138-204.782z"/>
			<path fill="#549667" d="M125.822-106.128c0,7.566-6.134,13.699-13.699,13.699c-7.566,0-13.699-6.133-13.699-13.699
				s6.133-13.699,13.699-13.699C119.688-119.827,125.822-113.694,125.822-106.128z"/>
			<path fill="#549667" d="M281.05-52.094c0,7.207-5.842,13.049-13.047,13.049c-7.207,0-13.049-5.842-13.049-13.049
				c0-7.205,5.842-13.049,13.049-13.049C275.208-65.143,281.05-59.299,281.05-52.094z"/>
			<path fill="#549667" d="M223.067-158.108c0,5.649-4.578,10.228-10.227,10.228s-10.229-4.578-10.229-10.228
				c0-5.648,4.58-10.228,10.229-10.228S223.067-163.757,223.067-158.108z"/>
			<path fill="#29A754" d="M178.653-183.892c0,8.938-7.248,16.187-16.186,16.187c-8.941,0-16.187-7.249-16.187-16.187
				c0-8.94,7.245-16.189,16.187-16.189C171.405-200.081,178.653-192.832,178.653-183.892z"/>
			<path fill="#549667" d="M105.014-67.445c0,4.969-4.029,8.996-8.998,8.996c-4.97,0-8.998-4.027-8.998-8.996
				c0-4.971,4.028-8.998,8.998-8.998C100.984-76.443,105.014-72.416,105.014-67.445z"/>
			<path fill="#549667" d="M317.263-116.766c0,7.035-5.705,12.739-12.74,12.739s-12.74-5.704-12.74-12.739
				c0-7.036,5.705-12.739,12.74-12.739S317.263-123.802,317.263-116.766z"/>
			<path fill="#059A8F" d="M92.841-10.199C92.841-4.568,88.274,0,82.642,0c-5.634,0-10.199-4.568-10.199-10.199
				c0-5.633,4.565-10.199,10.199-10.199C88.274-20.398,92.841-15.832,92.841-10.199z"/>
			<path fill="#29A754" d="M69.646-31.865c0,11.967-9.702,21.666-21.668,21.666c-11.966,0-21.667-9.699-21.667-21.666
				s9.701-21.668,21.667-21.668C59.944-53.533,69.646-43.832,69.646-31.865z"/>
			<path fill="#549667" d="M57.826-93.419c0,10.205-8.273,18.479-18.481,18.479c-10.206,0-18.48-8.274-18.48-18.479
				s8.274-18.479,18.48-18.479C49.553-111.898,57.826-103.624,57.826-93.419z"/>
			<path fill="#059A8F" d="M348.516-67.445c0,13.41-10.873,24.283-24.285,24.283c-13.412,0-24.283-10.873-24.283-24.283
				c0-13.413,10.871-24.284,24.283-24.284C337.643-91.729,348.516-80.858,348.516-67.445z"/>
			<path fill="#549667" d="M333.197-19.514c0,7.205-5.841,13.047-13.048,13.047c-7.206,0-13.048-5.842-13.048-13.047
				s5.842-13.047,13.048-13.047C327.356-32.561,333.197-26.719,333.197-19.514z"/>
			<path fill="#29A754" d="M292.431-19.514c0,6.285-5.096,11.381-11.381,11.381c-6.287,0-11.381-5.096-11.381-11.381
				s5.094-11.381,11.381-11.381C287.335-30.895,292.431-25.799,292.431-19.514z"/>
			<path fill="#29A754" d="M87.387-281.396c0,5.936-4.811,10.746-10.744,10.746c-5.936,0-10.746-4.811-10.746-10.746
				s4.811-10.745,10.746-10.745C82.576-292.142,87.387-287.332,87.387-281.396z"/>
			<path fill="#29A754" d="M351.129-353.717c0,5.936-4.811,10.746-10.744,10.746c-5.936,0-10.746-4.811-10.746-10.746
				s4.811-10.745,10.746-10.745C346.318-364.462,351.129-359.652,351.129-353.717z"/>
			<path fill="#549667" d="M346.403-290.378c0,12.243-9.925,22.17-22.171,22.17c-12.245,0-22.171-9.927-22.171-22.17
				s9.926-22.169,22.171-22.169C336.479-312.547,346.403-302.621,346.403-290.378z"/>
			<path fill="#059A8F" d="M317.303-327.181c0,5.854-4.745,10.599-10.599,10.599c-5.854,0-10.599-4.745-10.599-10.599
				s4.745-10.599,10.599-10.599C312.558-337.779,317.303-333.034,317.303-327.181z"/>
			<path fill="#549667" d="M328.849-240.408c0,7.566-6.134,13.699-13.699,13.699c-7.566,0-13.699-6.133-13.699-13.699
				s6.133-13.699,13.699-13.699C322.715-254.107,328.849-247.975,328.849-240.408z"/>
			<path fill="#29A754" d="M351.212-129.506c0,4.372-3.543,7.916-7.914,7.916s-7.914-3.544-7.914-7.916
				c0-4.37,3.543-7.913,7.914-7.913S351.212-133.876,351.212-129.506z"/>
			<path fill="#549667" d="M72.9-323.546c0,13.763-11.158,24.92-24.922,24.92s-24.922-11.157-24.922-24.92
				c0-13.765,11.158-24.923,24.922-24.923S72.9-337.311,72.9-323.546z"/>
			<path fill="#059A8F" d="M53.292-268.208c0,4.63-3.752,8.383-8.382,8.383c-4.631,0-8.381-3.753-8.381-8.383
				c0-4.629,3.75-8.382,8.381-8.382C49.539-276.59,53.292-272.837,53.292-268.208z"/>
			<path fill="#549667" d="M51.279-219.948c0,6.59-5.344,11.932-11.934,11.932c-6.589,0-11.933-5.342-11.933-11.932
				c0-6.591,5.344-11.934,11.933-11.934C45.935-231.882,51.279-226.539,51.279-219.948z"/>
			<path fill="#549667" d="M42.343-141.607c0,4.969-4.029,8.997-8.998,8.997s-8.998-4.028-8.998-8.997
				c0-4.97,4.029-8.998,8.998-8.998S42.343-146.577,42.343-141.607z"/>
		</g>
	</g>
</pattern>
<g id="Layer_1">
	<rect x="0" y="0.001" fill="#028164" width="299.999" height="299.997"/>
</g>
<g id="Layer_7">
	<circle fill="#29A754" cx="110.178" cy="108.904" r="20.828"/>
	<circle fill="#29A754" cx="176.009" cy="69.099" r="11.85"/>
	<path fill="#29A754" d="M272.046,166.236c0,9.462-7.67,17.134-17.131,17.134c-9.462,0-17.13-7.672-17.13-17.134
		c0-9.46,7.668-17.13,17.13-17.13C264.376,149.106,272.046,156.776,272.046,166.236z"/>
	<circle fill="#29A754" cx="111.799" cy="222.14" r="13.066"/>
	<circle fill="#29A754" cx="202.602" cy="170.415" r="9.338"/>
	<circle fill="#29A754" cx="228.88" cy="87.763" r="26.035"/>
	<circle fill="#29A754" cx="180.421" cy="12.768" r="10.065"/>
	<circle fill="#29A754" cx="202.602" cy="222.14" r="10.646"/>
	<circle fill="#29A754" cx="92.798" cy="264.867" r="20.21"/>
	<circle fill="#29A754" cx="58.345" cy="104.934" r="10.795"/>
	<circle fill="#29A754" cx="225.131" cy="43.329" r="8.818"/>
	<circle fill="#29A754" cx="77.448" cy="35.434" r="9.094"/>
	<path fill="#29A754" d="M39.08,149.104c0,5.173-4.193,9.365-9.365,9.365s-9.363-4.192-9.363-9.365c0-5.169,4.192-9.362,9.363-9.362
		S39.08,143.935,39.08,149.104z"/>
	<circle fill="#29A754" cx="122.575" cy="274.65" r="7.539"/>
	<circle fill="#059A8F" cx="180.421" cy="273.853" r="25.212"/>
	<circle fill="#059A8F" cx="153.146" cy="236.286" r="8.369"/>
	<circle fill="#059A8F" cx="93.2" cy="69.099" r="17.068"/>
	<circle fill="#059A8F" cx="216.88" cy="195.938" r="8.252"/>
	<circle fill="#059A8F" cx="172.329" cy="204.188" r="16.502"/>
	<circle fill="#059A8F" cx="149.634" cy="93.449" r="9.283"/>
	<circle fill="#059A8F" cx="247.118" cy="131.966" r="12.446"/>
	<circle fill="#059A8F" cx="208.628" cy="22.835" r="12.6"/>
	<circle fill="#059A8F" cx="99.694" cy="10.234" r="10.235"/>
	<circle fill="#059A8F" cx="124.799" cy="183.803" r="10.776"/>
	<circle fill="#059A8F" cx="70.25" cy="168.889" r="29.32"/>
	<circle fill="#549667" cx="172.881" cy="130.976" r="20.45"/>
	<circle fill="#549667" cx="55.749" cy="14.063" r="10.707"/>
	<circle fill="#549667" cx="135.575" cy="38.341" r="28.584"/>
	<circle fill="#549667" cx="193.331" cy="43.33" r="7.383"/>
	<circle fill="#549667" cx="284.546" cy="131.964" r="8.003"/>
	<circle fill="#549667" cx="76.349" cy="212.917" r="11.241"/>
	<circle fill="#549667" cx="217.256" cy="257.254" r="10.707"/>
	<circle fill="#549667" cx="171.993" cy="170.264" r="8.392"/>
	<circle fill="#29A754" cx="130.659" cy="149.107" r="13.282"/>
	<circle fill="#549667" cx="63.132" cy="244.657" r="7.383"/>
	<circle fill="#549667" cx="259.223" cy="204.188" r="10.454"/>
	<circle fill="#059A8F" cx="52.158" cy="291.631" r="8.369"/>
	<circle fill="#29A754" cx="23.715" cy="273.853" r="17.78"/>
	<circle fill="#549667" cx="16.631" cy="223.345" r="15.165"/>
	<circle fill="#059A8F" cx="275.396" cy="244.657" r="19.926"/>
	<circle fill="#549667" cx="279.833" cy="288.359" r="10.706"/>
	<circle fill="#29A754" cx="227.962" cy="283.988" r="9.338"/>
	<circle fill="#29A754" cx="60.235" cy="69.099" r="8.817"/>
	<circle fill="#29A754" cx="288.649" cy="9.757" r="8.816"/>
	<circle fill="#549667" cx="279.184" cy="61.729" r="18.192"/>
	<circle fill="#059A8F" cx="261.014" cy="31.531" r="8.697"/>
	<circle fill="#549667" cx="267.943" cy="102.732" r="11.241"/>
	<circle fill="#29A754" cx="290.202" cy="194.571" r="7.332"/>
	<circle fill="#549667" cx="21.715" cy="34.513" r="20.45"/>
	<circle fill="#059A8F" cx="9.936" cy="79.92" r="6.877"/>
	<circle fill="#549667" cx="21.814" cy="114.521" r="14.793"/>
	<circle fill="#549667" cx="12.708" cy="183.803" r="7.383"/>
</g>
</svg>
