<?xml version="1.0" encoding="utf-8"?>
<!-- Generator: Adobe Illustrator 16.0.0, SVG Export Plug-In . SVG Version: 6.00 Build 0)  -->
<!DOCTYPE svg PUBLIC "-//W3C//DTD SVG 1.1//EN" "http://www.w3.org/Graphics/SVG/1.1/DTD/svg11.dtd">
<svg version="1.1" id="ac-girl-head" xmlns="http://www.w3.org/2000/svg" xmlns:xlink="http://www.w3.org/1999/xlink" x="0px" y="0px"
	 width="64px" height="64px" viewBox="0 0 64 64" enable-background="new 0 0 64 64" xml:space="preserve">
<path fill="#EDA179" d="M55.672,34.27C54.074,22.42,44.125,9.959,32.088,9.959c-12.035,0-21.982,12.453-23.584,24.3
	c-1.559,0.078-9.992,0.965-1.867,10.984c0,0,0.934,0.959,3.322,0.131c3.5,7.232,12.084,10.572,22.129,10.572
	c10.018,0,18.586-3.324,22.1-10.521c2.283,0.742,3.176-0.182,3.176-0.182C65.221,35.555,57.592,34.406,55.672,34.27z"/>
<polygon fill="#F26322" points="32.695,33.367 30.569,41.123 34.822,41.123 "/>
<path fill="#5B3522" d="M32.369,46.506c-2.809,0-4.861-2.467-4.947-2.572l0.535-0.367c0.018,0.023,1.94,2.328,4.412,2.328
	c2.817,0,5.076-2.322,5.098-2.346l0.504,0.404C37.871,44.057,35.494,46.506,32.369,46.506z"/>
<g>
	<path fill="#FFFFFF" d="M24.24,39.496c-1.793,0-3.249-2.01-3.249-4.488c0-2.477,1.456-4.487,3.249-4.487
		c0.25,0,0.492,0.049,0.727,0.121c-0.658-0.42-1.404-0.663-2.121-0.663c-2.442,0-4.098,3.31-4.098,4.409v5.57
		c0,0,0.387,0.775,5.028,0.775c2.165,0,3.171-2.168,3.171-2.168V37.48C26.365,38.695,25.373,39.496,24.24,39.496z"/>
	<path fill="#010101" d="M20.991,35.008c0,2.479,1.456,4.488,3.249,4.488c1.133,0,2.125-0.801,2.707-2.016v-3.398
		c0-1.481-0.861-2.721-1.98-3.44c-0.234-0.072-0.477-0.121-0.727-0.121C22.447,30.521,20.991,32.531,20.991,35.008z"/>
	<path fill="#5B3522" d="M22.846,29.206c-1.125,0-2.106,0.547-2.889,1.305c-2.369,0.318-3.608-1.538-3.608-1.538s0,1.238,0.31,1.856
		c0.305,0.605,1.557,1.109,2.049,1.109c0.045,0,0.088-0.004,0.131-0.004c-0.555,0.918-0.863,1.858-0.863,2.454v5.57h0.773v-5.57
		c0-1.1,1.655-4.409,4.098-4.409c0.717,0,1.463,0.242,2.121,0.663c1.119,0.719,1.98,1.959,1.98,3.44v3.398v1.086
		c0,0,0.852-0.309,0.852-0.619c0-0.615,0.039-3.982,0.039-3.982C27.838,31.412,25.399,29.206,22.846,29.206z"/>
	<path fill="#FFFFFF" d="M44.044,39.496c-1.796,0-3.251-2.01-3.251-4.488c0-2.477,1.455-4.487,3.251-4.487
		c0.249,0,0.489,0.049,0.724,0.121c-0.658-0.422-1.403-0.663-2.117-0.663c-2.442,0-4.099,3.31-4.099,4.409v5.57
		c0,0,0.386,0.775,5.026,0.775c2.166,0,3.173-2.168,3.173-2.168v-1.084C46.17,38.695,45.176,39.496,44.044,39.496z"/>
	<path fill="#010101" d="M40.793,35.008c0,2.479,1.455,4.488,3.251,4.488c1.132,0,2.126-0.801,2.707-2.014v-3.4
		c0-1.481-0.863-2.723-1.983-3.44c-0.234-0.072-0.475-0.121-0.724-0.121C42.248,30.521,40.793,32.531,40.793,35.008z"/>
	<path fill="#5B3522" d="M46.005,30.542c-0.922-0.819-2.123-1.336-3.354-1.336c-1.128,0-2.107,0.547-2.89,1.305l-1.123,1.424
		c-0.552,0.918-0.86,1.858-0.86,2.454v5.57h0.774v-5.57c0-1.1,1.656-4.409,4.099-4.409c0.714,0,1.459,0.24,2.117,0.663
		c1.12,0.717,1.983,1.959,1.983,3.44v3.4v1.084c0,0,0.853-0.309,0.853-0.619c0-0.615,0.037-3.982,0.037-3.982
		c0-0.742-0.21-1.452-0.564-2.09c0.582-0.15,1.419-0.563,1.659-1.045c0.308-0.618,0.308-1.856,0.308-1.856
		S48.003,30.531,46.005,30.542z"/>
</g>
<path fill="#C62026" d="M64,48.209c0,0-6.87-3.242-6.747-17.153c0.012-1.332-2.724-23.701-24.016-23.701
	C32,7.355,12.813,4.361,7.489,30.058C6.617,34.271,8.852,40.289,0,45.529c0,0,2.52,5.844,14.342,5.281c0,0-4.342-4.305-3.263-10.646
	c0,0,1.609-7.672,1.98-12.913c0,0,33.547,4.928,35.961-7.359c0,0,8.396,22.975,1.68,30.176C50.7,50.068,63.565,52.639,64,48.209z"/>
</svg>
